<svg xmlns="http://www.w3.org/2000/svg" xmlns:xlink="http://www.w3.org/1999/xlink" width="500" zoomAndPan="magnify" viewBox="0 0 375 374.999991" height="500" preserveAspectRatio="xMidYMid meet" version="1.0"><defs><g/><clipPath id="3719196124"><path d="M 83.882812 111.882812 L 290.882812 111.882812 L 290.882812 257 L 83.882812 257 Z M 83.882812 111.882812 " clip-rule="nonzero"/></clipPath><clipPath id="7124b013b0"><path d="M 104.355469 218.332031 L 135 218.332031 L 135 263.109375 L 104.355469 263.109375 Z M 104.355469 218.332031 " clip-rule="nonzero"/></clipPath><clipPath id="7b26b6e1b3"><path d="M 150 192 L 180.613281 192 L 180.613281 263.109375 L 150 263.109375 Z M 150 192 " clip-rule="nonzero"/></clipPath><clipPath id="5010f659a0"><path d="M 195.453125 187.113281 L 226 187.113281 L 226 263.109375 L 195.453125 263.109375 Z M 195.453125 187.113281 " clip-rule="nonzero"/></clipPath><clipPath id="6daa043f46"><path d="M 240.492188 147.195312 L 271.710938 147.195312 L 271.710938 263.109375 L 240.492188 263.109375 Z M 240.492188 147.195312 " clip-rule="nonzero"/></clipPath></defs><rect x="-37.5" width="450" fill="#ffffff" y="-37.499999" height="449.999989" fill-opacity="1"/><rect x="-37.5" width="450" fill="#03466e" y="-37.499999" height="449.999989" fill-opacity="1"/><g clip-path="url(#3719196124)"><path fill="#38b6ff" d="M 291.132812 111.878906 L 253.390625 119.148438 L 267.125 125.1875 L 206.285156 183.914062 L 162.5 176.175781 L 161.09375 175.925781 L 160.1875 176.878906 L 83.882812 256.804688 L 162.777344 181.488281 L 206.757812 191.386719 L 208.488281 191.773438 L 209.941406 190.492188 L 274.523438 133.695312 L 278.554688 148.199219 L 291.132812 111.878906 " fill-opacity="1" fill-rule="nonzero"/></g><g clip-path="url(#7124b013b0)"><path fill="#38b6ff" d="M 104.527344 247.761719 L 104.527344 263.109375 L 134.847656 263.109375 L 134.847656 218.816406 L 104.527344 247.761719 " fill-opacity="1" fill-rule="nonzero"/></g><g clip-path="url(#7b26b6e1b3)"><path fill="#38b6ff" d="M 162.777344 192.15625 L 150.003906 204.347656 L 150.003906 263.109375 L 180.324219 263.109375 L 180.324219 196.105469 L 162.777344 192.15625 " fill-opacity="1" fill-rule="nonzero"/></g><g clip-path="url(#5010f659a0)"><path fill="#38b6ff" d="M 209.941406 201.160156 L 208.488281 202.441406 L 206.757812 202.050781 L 195.480469 199.515625 L 195.480469 263.109375 L 225.800781 263.109375 L 225.800781 187.210938 L 209.941406 201.160156 " fill-opacity="1" fill-rule="nonzero"/></g><g clip-path="url(#6daa043f46)"><path fill="#38b6ff" d="M 240.960938 173.882812 L 240.960938 263.109375 L 271.277344 263.109375 L 271.277344 147.21875 L 240.960938 173.882812 " fill-opacity="1" fill-rule="nonzero"/></g><g fill="#d9d9d9" fill-opacity="1"><g transform="translate(79.77279, 292.047212)"><g><path d="M 0.859375 -28.859375 L 13.1875 -28.859375 C 17.007812 -28.859375 19.875 -28.34375 21.78125 -27.3125 C 23.695312 -26.28125 24.65625 -24.539062 24.65625 -22.09375 C 24.65625 -18.332031 22.382812 -16.078125 17.84375 -15.328125 L 17.84375 -15.25 C 23.34375 -14.5625 26.09375 -12.171875 26.09375 -8.078125 C 26.09375 -5.085938 24.960938 -2.992188 22.703125 -1.796875 C 20.453125 -0.597656 17.210938 0 12.984375 0 L 0.859375 0 L 0.859375 -0.78125 L 3.546875 -0.78125 L 3.546875 -28.0625 L 0.859375 -28.0625 Z M 11.578125 -14.59375 L 11.578125 -0.78125 L 13.515625 -0.78125 C 15.023438 -0.78125 16.082031 -1.300781 16.6875 -2.34375 C 17.289062 -3.394531 17.59375 -4.9375 17.59375 -6.96875 L 17.59375 -9.15625 C 17.59375 -10.96875 17.222656 -12.328125 16.484375 -13.234375 C 15.742188 -14.140625 14.425781 -14.59375 12.53125 -14.59375 Z M 11.578125 -28.0625 L 11.578125 -15.375 L 12.65625 -15.375 C 14.082031 -15.375 15.078125 -15.804688 15.640625 -16.671875 C 16.203125 -17.535156 16.484375 -18.863281 16.484375 -20.65625 L 16.484375 -22.59375 C 16.484375 -24.625 16.234375 -26.039062 15.734375 -26.84375 C 15.242188 -27.65625 14.300781 -28.0625 12.90625 -28.0625 Z M 11.578125 -28.0625 "/></g></g></g><g fill="#d9d9d9" fill-opacity="1"><g transform="translate(106.936672, 292.047212)"><g><path d="M 16.078125 -0.40625 C 17.421875 -0.40625 18.273438 -0.648438 18.640625 -1.140625 C 19.015625 -1.640625 19.203125 -2.484375 19.203125 -3.671875 L 19.203125 -11.671875 L 16.5625 -11.671875 L 16.5625 -12.578125 L 28.4375 -12.578125 L 28.4375 -11.671875 L 26.828125 -11.671875 L 26.828125 -0.046875 L 26.21875 -0.046875 C 25.71875 -0.734375 25.015625 -1.078125 24.109375 -1.078125 C 23.722656 -1.078125 22.578125 -0.828125 20.671875 -0.328125 C 18.765625 0.160156 17.132812 0.40625 15.78125 0.40625 C 11.300781 0.40625 7.832031 -0.800781 5.375 -3.21875 C 2.914062 -5.632812 1.6875 -9.265625 1.6875 -14.109375 C 1.6875 -18.960938 2.96875 -22.707031 5.53125 -25.34375 C 8.101562 -27.988281 11.5625 -29.3125 15.90625 -29.3125 C 17.582031 -29.3125 19.265625 -29.097656 20.953125 -28.671875 C 22.648438 -28.242188 23.632812 -28.03125 23.90625 -28.03125 C 24.175781 -28.03125 24.378906 -28.09375 24.515625 -28.21875 C 24.660156 -28.34375 24.816406 -28.554688 24.984375 -28.859375 L 25.4375 -28.859375 L 25.765625 -19.90625 L 25.015625 -19.90625 C 23.671875 -22.570312 22.316406 -24.664062 20.953125 -26.1875 C 19.597656 -27.71875 18.082031 -28.484375 16.40625 -28.484375 C 12.195312 -28.484375 10.09375 -24.375 10.09375 -16.15625 L 10.09375 -12.90625 C 10.09375 -8.78125 10.609375 -5.664062 11.640625 -3.5625 C 12.671875 -1.457031 14.148438 -0.40625 16.078125 -0.40625 Z M 16.078125 -0.40625 "/></g></g></g><g fill="#d9d9d9" fill-opacity="1"><g transform="translate(136.738624, 292.047212)"><g/></g></g><g fill="#d9d9d9" fill-opacity="1"><g transform="translate(144.158199, 292.047212)"><g><path d="M 26.21875 -28.859375 L 26.625 -18.5 L 25.84375 -18.5 C 24.632812 -22.15625 23.5625 -24.648438 22.625 -25.984375 C 21.695312 -27.316406 20.351562 -27.984375 18.59375 -27.984375 L 18.09375 -27.984375 L 18.09375 -0.859375 L 21.59375 -0.859375 L 21.59375 0 L 6.546875 0 L 6.546875 -0.859375 L 10.0625 -0.859375 L 10.0625 -27.984375 L 9.515625 -27.984375 C 7.765625 -27.984375 6.40625 -27.289062 5.4375 -25.90625 C 4.476562 -24.519531 3.421875 -22.050781 2.265625 -18.5 L 1.484375 -18.5 L 1.890625 -28.859375 Z M 26.21875 -28.859375 "/></g></g></g><g fill="#d9d9d9" fill-opacity="1"><g transform="translate(172.311351, 292.047212)"><g><path d="M 14.171875 -18.46875 C 13.160156 -18.46875 12.269531 -17.804688 11.5 -16.484375 C 10.726562 -15.171875 10.34375 -13.601562 10.34375 -11.78125 L 10.34375 -0.734375 L 13.265625 -0.734375 L 13.265625 0 L 0.40625 0 L 0.40625 -0.734375 L 2.671875 -0.734375 L 2.671875 -18.875 L 0.40625 -18.875 L 0.40625 -19.625 L 10.34375 -19.625 L 10.34375 -15.65625 C 10.695312 -17.0625 11.382812 -18.140625 12.40625 -18.890625 C 13.425781 -19.648438 14.582031 -20.03125 15.875 -20.03125 C 17.164062 -20.03125 18.210938 -19.664062 19.015625 -18.9375 C 19.828125 -18.207031 20.234375 -17.175781 20.234375 -15.84375 C 20.234375 -14.507812 19.929688 -13.484375 19.328125 -12.765625 C 18.722656 -12.054688 17.796875 -11.703125 16.546875 -11.703125 C 15.296875 -11.703125 14.375 -12.113281 13.78125 -12.9375 C 13.195312 -13.757812 13.125 -14.898438 13.5625 -16.359375 L 15.046875 -16.359375 C 15.734375 -17.765625 15.441406 -18.46875 14.171875 -18.46875 Z M 14.171875 -18.46875 "/></g></g></g><g fill="#d9d9d9" fill-opacity="1"><g transform="translate(192.715171, 292.047212)"><g><path d="M 10.3125 -9.6875 L 11.5 -9.6875 L 11.5 -12.859375 C 11.5 -15.472656 11.351562 -17.222656 11.0625 -18.109375 C 10.78125 -19.003906 10.222656 -19.453125 9.390625 -19.453125 C 8.898438 -19.453125 8.453125 -19.320312 8.046875 -19.0625 C 7.648438 -18.800781 7.453125 -18.441406 7.453125 -17.984375 C 7.453125 -17.535156 7.535156 -17.078125 7.703125 -16.609375 L 8.734375 -16.609375 C 8.953125 -16.035156 9.0625 -15.34375 9.0625 -14.53125 C 9.0625 -13.71875 8.71875 -13.015625 8.03125 -12.421875 C 7.34375 -11.835938 6.476562 -11.546875 5.4375 -11.546875 C 3.070312 -11.546875 1.890625 -12.6875 1.890625 -14.96875 C 1.890625 -18.34375 4.765625 -20.03125 10.515625 -20.03125 C 13.785156 -20.03125 16.046875 -19.472656 17.296875 -18.359375 C 18.546875 -17.242188 19.171875 -15.203125 19.171875 -12.234375 L 19.171875 -3.875 C 19.171875 -2.445312 19.566406 -1.734375 20.359375 -1.734375 C 21.296875 -1.734375 21.847656 -3.148438 22.015625 -5.984375 L 22.625 -5.9375 C 22.519531 -3.519531 22.066406 -1.859375 21.265625 -0.953125 C 20.472656 -0.046875 19.171875 0.40625 17.359375 0.40625 C 14.054688 0.40625 12.160156 -0.609375 11.671875 -2.640625 C 11.304688 -1.597656 10.765625 -0.828125 10.046875 -0.328125 C 9.335938 0.160156 8.296875 0.40625 6.921875 0.40625 C 2.859375 0.40625 0.828125 -1.253906 0.828125 -4.578125 C 0.828125 -6.523438 1.601562 -7.863281 3.15625 -8.59375 C 4.707031 -9.320312 7.09375 -9.6875 10.3125 -9.6875 Z M 8.65625 -4.609375 C 8.65625 -3.179688 8.726562 -2.257812 8.875 -1.84375 C 9.03125 -1.4375 9.320312 -1.234375 9.75 -1.234375 C 10.175781 -1.234375 10.570312 -1.582031 10.9375 -2.28125 C 11.3125 -2.988281 11.5 -3.957031 11.5 -5.1875 L 11.5 -9.03125 L 11.21875 -9.03125 C 9.507812 -9.03125 8.65625 -7.78125 8.65625 -5.28125 Z M 8.65625 -4.609375 "/></g></g></g><g fill="#d9d9d9" fill-opacity="1"><g transform="translate(215.344865, 292.047212)"><g><path d="M 11.953125 -19.296875 C 10.742188 -19.296875 9.878906 -18.632812 9.359375 -17.3125 C 8.835938 -15.988281 8.578125 -13.804688 8.578125 -10.765625 L 8.578125 -8.609375 C 8.578125 -5.890625 8.878906 -3.9375 9.484375 -2.75 C 10.085938 -1.570312 11.195312 -0.984375 12.8125 -0.984375 C 14.4375 -0.984375 15.726562 -1.53125 16.6875 -2.625 C 17.65625 -3.726562 18.273438 -4.984375 18.546875 -6.390625 L 19.296875 -6.3125 C 18.765625 -3.945312 17.800781 -2.242188 16.40625 -1.203125 C 14.976562 -0.128906 13.015625 0.40625 10.515625 0.40625 C 7.328125 0.40625 4.878906 -0.445312 3.171875 -2.15625 C 1.472656 -3.875 0.625 -6.390625 0.625 -9.703125 C 0.625 -13.015625 1.59375 -15.5625 3.53125 -17.34375 C 5.46875 -19.132812 8.164062 -20.03125 11.625 -20.03125 C 14.070312 -20.03125 15.941406 -19.554688 17.234375 -18.609375 C 18.523438 -17.660156 19.171875 -16.472656 19.171875 -15.046875 C 19.171875 -13.617188 18.859375 -12.570312 18.234375 -11.90625 C 17.617188 -11.25 16.769531 -10.921875 15.6875 -10.921875 C 14.601562 -10.921875 13.726562 -11.207031 13.0625 -11.78125 C 12.40625 -12.363281 12.078125 -13.21875 12.078125 -14.34375 C 12.078125 -14.84375 12.144531 -15.335938 12.28125 -15.828125 L 13.640625 -15.828125 C 13.835938 -16.378906 13.9375 -16.875 13.9375 -17.3125 C 13.9375 -18.632812 13.273438 -19.296875 11.953125 -19.296875 Z M 11.953125 -19.296875 "/></g></g></g><g fill="#d9d9d9" fill-opacity="1"><g transform="translate(235.25405, 292.047212)"><g><path d="M 13.890625 0 L 13.890625 -0.734375 L 15.78125 -0.734375 L 11.125 -10.3125 L 10.34375 -10.09375 L 10.34375 -0.734375 L 12.234375 -0.734375 L 12.234375 0 L 0.40625 0 L 0.40625 -0.734375 L 2.671875 -0.734375 L 2.671875 -30.171875 L 0.25 -30.171875 L 0.25 -30.921875 L 10.34375 -30.921875 L 10.34375 -10.921875 L 11 -11.171875 L 20.28125 -18.875 L 16.40625 -18.875 L 16.40625 -19.625 L 24.53125 -19.625 L 24.53125 -18.875 L 21.640625 -18.875 L 16.734375 -14.71875 L 23.859375 -0.734375 L 25.34375 -0.734375 L 25.34375 0 Z M 13.890625 0 "/></g></g></g><g fill="#d9d9d9" fill-opacity="1"><g transform="translate(260.810359, 292.047212)"><g><path d="M 11.25 0.40625 C 7.707031 0.40625 5.050781 -0.503906 3.28125 -2.328125 C 1.507812 -4.148438 0.625 -6.691406 0.625 -9.953125 C 0.625 -13.210938 1.617188 -15.707031 3.609375 -17.4375 C 5.597656 -19.164062 8.132812 -20.03125 11.21875 -20.03125 C 17.445312 -20.03125 20.441406 -16.898438 20.203125 -10.640625 L 8.578125 -10.640625 L 8.578125 -9.03125 C 8.578125 -6.332031 8.921875 -4.296875 9.609375 -2.921875 C 10.296875 -1.546875 11.488281 -0.859375 13.1875 -0.859375 C 16.375 -0.859375 18.460938 -2.566406 19.453125 -5.984375 L 20.203125 -5.859375 C 19.671875 -3.878906 18.722656 -2.335938 17.359375 -1.234375 C 16.003906 -0.140625 13.96875 0.40625 11.25 0.40625 Z M 8.609375 -11.453125 L 12.859375 -11.453125 L 12.859375 -13.484375 C 12.859375 -15.703125 12.726562 -17.21875 12.46875 -18.03125 C 12.207031 -18.84375 11.6875 -19.25 10.90625 -19.25 C 10.125 -19.25 9.546875 -18.816406 9.171875 -17.953125 C 8.796875 -17.085938 8.609375 -15.597656 8.609375 -13.484375 Z M 8.609375 -11.453125 "/></g></g></g><g fill="#d9d9d9" fill-opacity="1"><g transform="translate(282.079799, 292.047212)"><g><path d="M 14.171875 -18.46875 C 13.160156 -18.46875 12.269531 -17.804688 11.5 -16.484375 C 10.726562 -15.171875 10.34375 -13.601562 10.34375 -11.78125 L 10.34375 -0.734375 L 13.265625 -0.734375 L 13.265625 0 L 0.40625 0 L 0.40625 -0.734375 L 2.671875 -0.734375 L 2.671875 -18.875 L 0.40625 -18.875 L 0.40625 -19.625 L 10.34375 -19.625 L 10.34375 -15.65625 C 10.695312 -17.0625 11.382812 -18.140625 12.40625 -18.890625 C 13.425781 -19.648438 14.582031 -20.03125 15.875 -20.03125 C 17.164062 -20.03125 18.210938 -19.664062 19.015625 -18.9375 C 19.828125 -18.207031 20.234375 -17.175781 20.234375 -15.84375 C 20.234375 -14.507812 19.929688 -13.484375 19.328125 -12.765625 C 18.722656 -12.054688 17.796875 -11.703125 16.546875 -11.703125 C 15.296875 -11.703125 14.375 -12.113281 13.78125 -12.9375 C 13.195312 -13.757812 13.125 -14.898438 13.5625 -16.359375 L 15.046875 -16.359375 C 15.734375 -17.765625 15.441406 -18.46875 14.171875 -18.46875 Z M 14.171875 -18.46875 "/></g></g></g></svg>